<svg width="398" height="467" viewBox="0 0 398 467" fill="none" xmlns="http://www.w3.org/2000/svg">
<path d="M352 375H46C20.5949 375 0 395.595 0 421C0 446.405 20.5949 467 46 467H352C377.405 467 398 446.405 398 421C398 395.595 377.405 375 352 375Z" fill="#2C5EF1"/>
<path d="M349 48H52V92H349V48Z" fill="#93ADFF"/>
<path d="M372.844 128.511L107.652 262.236L87.8412 222.949L353.032 89.2233L372.844 128.511Z" fill="#93ADFF"/>
<path d="M85.9605 276.965L108.881 275.056L105.271 231.706C104.744 225.377 99.1862 220.673 92.8569 221.2C86.5275 221.727 81.8238 227.286 82.3508 233.615L85.9605 276.965Z" fill="#93ADFF"/>
<path d="M296 0H24V48H296V0Z" fill="#2C5EF1"/>
<path d="M345.793 195.763C365.741 184.16 381.31 166.309 390.095 144.97C398.879 123.63 400.389 99.9911 394.391 77.7074C388.393 55.4238 375.22 35.7369 356.91 21.6906C338.601 7.64439 316.174 0.0212888 293.097 0L293.053 47.9121C305.599 47.9237 317.793 52.0683 327.748 59.7052C337.703 67.342 344.864 78.0457 348.126 90.1612C351.387 102.277 350.566 115.129 345.79 126.731C341.014 138.333 332.549 148.039 321.703 154.347L345.793 195.763Z" fill="#2C5EF1"/>
<path d="M324.298 153L81.4297 275.47L103.042 318.329L345.911 195.859L324.298 153Z" fill="#2C5EF1"/>
<path d="M103.042 318.328C114.877 312.36 119.633 297.928 113.665 286.093C107.697 274.257 93.2648 269.501 81.4296 275.469C69.5944 281.437 64.8381 295.87 70.8061 307.705C76.7742 319.54 91.2066 324.296 103.042 318.328Z" fill="#2C5EF1"/>
<path d="M103.042 318.328C114.877 312.36 119.633 297.928 113.665 286.093C107.697 274.257 93.2648 269.501 81.4296 275.469C69.5944 281.437 64.8381 295.87 70.8061 307.705C76.7742 319.54 91.2066 324.296 103.042 318.328Z" fill="#2C5EF1"/>
<path d="M103.042 318.328C114.877 312.36 119.633 297.928 113.665 286.093C107.697 274.257 93.2648 269.501 81.4296 275.469C69.5944 281.437 64.8381 295.87 70.8061 307.705C76.7742 319.54 91.2066 324.296 103.042 318.328Z" fill="#2C5EF1"/>
</svg>
