<svg width="45" height="45" viewBox="0 0 45 45" fill="none" xmlns="http://www.w3.org/2000/svg">
<rect width="45" height="45" rx="10" fill="url(#paint0_linear_163_668)"/>
<path d="M18.7552 22.5576C18.7552 20.4848 20.4346 18.804 22.5068 18.804C24.5791 18.804 26.2594 20.4848 26.2594 22.5576C26.2594 24.6304 24.5791 26.3112 22.5068 26.3112C20.4346 26.3112 18.7552 24.6304 18.7552 22.5576ZM16.7266 22.5576C16.7266 25.7509 19.3144 28.3395 22.5068 28.3395C25.6993 28.3395 28.287 25.7509 28.287 22.5576C28.287 19.3643 25.6993 16.7757 22.5068 16.7757C19.3144 16.7757 16.7266 19.3643 16.7266 22.5576ZM27.1651 16.5465C27.165 16.8137 27.2441 17.075 27.3924 17.2973C27.5408 17.5195 27.7517 17.6928 27.9984 17.7952C28.2452 17.8975 28.5168 17.9244 28.7789 17.8724C29.0409 17.8203 29.2817 17.6917 29.4707 17.5028C29.6596 17.314 29.7884 17.0732 29.8406 16.8112C29.8928 16.5491 29.8662 16.2774 29.7641 16.0304C29.6619 15.7835 29.4889 15.5724 29.2668 15.4238C29.0447 15.2753 28.7836 15.1959 28.5164 15.1958H28.5159C28.1578 15.196 27.8144 15.3383 27.5611 15.5916C27.3078 15.8448 27.1654 16.1883 27.1651 16.5465ZM17.9591 31.723C16.8616 31.673 16.2651 31.4901 15.8687 31.3356C15.3431 31.131 14.9682 30.8872 14.5739 30.4934C14.1796 30.0996 13.9356 29.7248 13.7319 29.1991C13.5774 28.8028 13.3945 28.2059 13.3447 27.1081C13.2901 25.9212 13.2792 25.5647 13.2792 22.5577C13.2792 19.5507 13.291 19.1952 13.3447 18.0073C13.3946 16.9095 13.5788 16.3138 13.7319 15.9163C13.9365 15.3906 14.1802 15.0155 14.5739 14.6211C14.9676 14.2267 15.3422 13.9826 15.8687 13.7789C16.2649 13.6243 16.8616 13.4414 17.9591 13.3915C19.1457 13.3369 19.5021 13.326 22.5068 13.326C25.5116 13.326 25.8684 13.3378 27.0559 13.3915C28.1534 13.4415 28.7489 13.6257 29.1463 13.7789C29.6719 13.9826 30.0469 14.2273 30.4411 14.6211C30.8354 15.0149 31.0785 15.3906 31.2831 15.9163C31.4377 16.3126 31.6205 16.9095 31.6704 18.0073C31.7249 19.1952 31.7358 19.5507 31.7358 22.5577C31.7358 25.5647 31.7249 25.9202 31.6704 27.1081C31.6204 28.2059 31.4367 28.8026 31.2831 29.1991C31.0785 29.7248 30.8349 30.0999 30.4411 30.4934C30.0474 30.8869 29.6719 31.131 29.1463 31.3356C28.7501 31.4902 28.1534 31.6731 27.0559 31.723C25.8694 31.7776 25.5129 31.7885 22.5068 31.7885C19.5007 31.7885 19.1453 31.7776 17.9591 31.723ZM17.8659 11.3658C16.6676 11.4204 15.8487 11.6105 15.1336 11.8888C14.393 12.1762 13.766 12.5619 13.1395 13.1876C12.513 13.8133 12.1285 14.4414 11.8411 15.1822C11.5628 15.898 11.3728 16.7166 11.3183 17.9153C11.2628 19.1159 11.2501 19.4998 11.2501 22.5576C11.2501 25.6155 11.2628 25.9993 11.3183 27.1999C11.3728 28.3987 11.5628 29.2172 11.8411 29.933C12.1285 30.6734 12.5131 31.3022 13.1395 31.9276C13.7659 32.5531 14.393 32.9382 15.1336 33.2264C15.85 33.5048 16.6676 33.6948 17.8659 33.7494C19.0668 33.804 19.4499 33.8176 22.5068 33.8176C25.5638 33.8176 25.9475 33.8049 27.1478 33.7494C28.3462 33.6948 29.1645 33.5048 29.8801 33.2264C30.6203 32.9382 31.2477 32.5533 31.8742 31.9276C32.5007 31.3019 32.8844 30.6734 33.1726 29.933C33.4508 29.2172 33.6417 28.3986 33.6954 27.1999C33.75 25.9984 33.7627 25.6155 33.7627 22.5576C33.7627 19.4998 33.75 19.1159 33.6954 17.9153C33.6408 16.7166 33.4508 15.8975 33.1726 15.1822C32.8844 14.4418 32.4997 13.8143 31.8742 13.1876C31.2487 12.5609 30.6203 12.1762 29.881 11.8888C29.1645 11.6105 28.3461 11.4195 27.1487 11.3658C25.9484 11.3112 25.5647 11.2976 22.5077 11.2976C19.4508 11.2976 19.0668 11.3103 17.8659 11.3658Z" fill="white"/>
<defs>
<linearGradient id="paint0_linear_163_668" x1="44.1351" y1="45" x2="-0.864899" y2="-1.21127e-06" gradientUnits="userSpaceOnUse">
<stop stop-color="#FBE18A"/>
<stop offset="0.21" stop-color="#FCBB45"/>
<stop offset="0.38" stop-color="#F75274"/>
<stop offset="0.52" stop-color="#D53692"/>
<stop offset="0.74" stop-color="#8F39CE"/>
<stop offset="1" stop-color="#5B4FE9"/>
</linearGradient>
</defs>
</svg>
