<svg width="477" height="380" viewBox="0 0 477 380" fill="none" xmlns="http://www.w3.org/2000/svg">
<path d="M418.05 317.949L50.9013 307.433C42.6463 307.204 34.758 303.974 28.7143 298.349C22.6706 292.724 18.8861 285.089 18.0698 276.875L0.347819 101.854C-0.124003 97.1695 0.382801 92.4377 1.83611 87.9588C3.28942 83.4799 5.65755 79.3515 8.79049 75.8352C11.9234 72.3189 15.7529 69.4914 20.0362 67.5317C24.3196 65.5719 28.9634 64.5228 33.6736 64.4507L442.338 58.8049C447.198 58.7392 452.015 59.7145 456.466 61.6652C460.917 63.6158 464.899 66.4967 468.143 70.1138C471.388 73.731 473.819 78.0007 475.275 82.6356C476.73 87.2706 477.176 92.1633 476.582 96.9848L452.788 288.167C451.753 296.566 447.617 304.275 441.191 309.785C434.765 315.294 426.512 318.206 418.05 317.949Z" fill="#F6F6F6"/>
<mask id="mask0_198_1313" style="mask-type:luminance" maskUnits="userSpaceOnUse" x="0" y="58" width="477" height="260">
<path d="M418.05 317.949L50.9013 307.433C42.6463 307.204 34.758 303.974 28.7143 298.349C22.6706 292.724 18.8861 285.089 18.0698 276.875L0.347819 101.854C-0.124003 97.1695 0.382801 92.4377 1.83611 87.9588C3.28942 83.4799 5.65755 79.3515 8.79049 75.8352C11.9234 72.3189 15.7529 69.4914 20.0362 67.5317C24.3196 65.5719 28.9634 64.5228 33.6736 64.4507L442.338 58.8049C447.198 58.7392 452.015 59.7145 456.466 61.6652C460.917 63.6158 464.899 66.4967 468.143 70.1138C471.388 73.731 473.819 78.0007 475.275 82.6356C476.73 87.2706 477.176 92.1633 476.582 96.9848L452.788 288.167C451.753 296.566 447.617 304.275 441.191 309.785C434.765 315.294 426.512 318.206 418.05 317.949Z" fill="white"/>
</mask>
<g mask="url(#mask0_198_1313)">
<path d="M365.167 365.444H658.532C661.341 365.444 664.035 364.329 666.021 362.344C668.007 360.358 669.123 357.666 669.123 354.858V188.588C669.123 185.781 668.007 183.088 666.021 181.103C664.035 179.118 661.341 178.002 658.532 178.002H365.167C362.358 178.002 359.664 179.118 357.678 181.103C355.691 183.088 354.576 185.781 354.576 188.588V354.858C354.576 357.666 355.691 360.358 357.678 362.344C359.664 364.329 362.358 365.444 365.167 365.444Z" stroke="#D9D9D9" stroke-width="1.8" stroke-linecap="round" stroke-linejoin="round"/>
<path d="M-22.5283 354.294H273.379C276.188 354.294 278.882 353.178 280.868 351.193C282.854 349.208 283.97 346.515 283.97 343.708V100.725C283.97 97.9175 282.854 95.225 280.868 93.2397C278.882 91.2545 276.188 90.1392 273.379 90.1392H-22.5283C-25.3372 90.1392 -28.031 91.2545 -30.0172 93.2397C-32.0033 95.225 -33.1191 97.9175 -33.1191 100.725V343.708C-33.1191 346.515 -32.0033 349.208 -30.0172 351.193C-28.031 353.178 -25.3372 354.294 -22.5283 354.294Z" stroke="#D9D9D9" stroke-width="1.8" stroke-linecap="round" stroke-linejoin="round"/>
<path d="M381.123 177.932H395.456C396.203 177.934 396.924 177.662 397.484 177.168C398.044 176.673 398.402 175.991 398.492 175.25L399.622 165.088C399.668 164.661 399.625 164.23 399.493 163.821C399.362 163.413 399.146 163.037 398.86 162.717C398.573 162.397 398.223 162.142 397.831 161.967C397.439 161.791 397.015 161.701 396.586 161.7H379.994C379.565 161.702 379.141 161.793 378.75 161.969C378.358 162.144 378.008 162.4 377.722 162.719C377.436 163.039 377.22 163.414 377.088 163.822C376.957 164.23 376.912 164.661 376.957 165.088L378.087 175.25C378.177 175.991 378.536 176.673 379.095 177.168C379.655 177.662 380.376 177.934 381.123 177.932Z" stroke="#D9D9D9" stroke-width="1.8" stroke-linecap="round" stroke-linejoin="round"/>
<path d="M389.949 161.771C389.949 161.771 395.597 161.206 396.727 153.584C396.727 153.584 391.643 155.066 390.019 158.665C390.019 158.665 389.313 150.62 385.501 149.844C385.501 149.844 383.806 155.842 386.489 158.806C386.489 158.806 384.442 155.419 379.217 155.49C379.71 156.976 380.56 158.319 381.693 159.401C382.825 160.484 384.205 161.273 385.713 161.7" fill="#AAAAAA"/>
<path d="M38.1925 164.029H52.5254C53.2722 164.031 53.9937 163.759 54.5533 163.265C55.1129 162.771 55.4716 162.088 55.5615 161.347L56.6911 151.185C56.7377 150.758 56.694 150.327 56.5627 149.918C56.4314 149.51 56.2155 149.134 55.9291 148.814C55.6427 148.495 55.2922 148.239 54.9004 148.064C54.5086 147.889 54.0843 147.798 53.6551 147.797H37.0628C36.6339 147.799 36.2102 147.89 35.8189 148.066C35.4276 148.242 35.0776 148.497 34.7914 148.817C34.5053 149.136 34.2893 149.512 34.1576 149.92C34.0259 150.328 33.9813 150.759 34.0268 151.185L35.1565 161.347C35.2478 162.088 35.607 162.769 36.1662 163.263C36.7255 163.757 37.4462 164.03 38.1925 164.029Z" stroke="#D9D9D9" stroke-width="1.8" stroke-linecap="round" stroke-linejoin="round"/>
<path d="M47.0182 147.797C47.0182 147.797 52.6666 147.233 53.7963 139.611C53.7963 139.611 48.7127 141.093 47.0888 144.692C47.0888 144.692 46.3827 136.647 42.57 135.87C42.57 135.87 40.8755 141.869 43.5585 144.833C43.5585 144.833 41.5109 141.446 36.2861 141.516C36.7798 143.003 37.6298 144.346 38.7621 145.428C39.8943 146.511 41.2744 147.3 42.7818 147.727" fill="#AAAAAA"/>
<path d="M367.426 213.077H431.112C431.896 213.072 432.648 212.758 433.202 212.203C433.757 211.648 434.072 210.897 434.077 210.113V190.706C434.072 189.921 433.757 189.17 433.202 188.616C432.648 188.061 431.896 187.747 431.112 187.741H367.426C366.641 187.747 365.89 188.061 365.335 188.616C364.78 189.17 364.466 189.921 364.46 190.706V210.043C364.456 210.436 364.528 210.827 364.675 211.193C364.822 211.559 365.039 211.892 365.314 212.174C365.589 212.456 365.918 212.68 366.28 212.835C366.642 212.99 367.031 213.073 367.426 213.077Z" stroke="#D9D9D9" stroke-width="1.8" stroke-linecap="round" stroke-linejoin="round"/>
<path d="M391.926 194.658H406.612C406.89 194.651 407.156 194.537 407.353 194.34C407.55 194.143 407.664 193.878 407.671 193.599C407.664 193.321 407.55 193.055 407.353 192.858C407.156 192.661 406.89 192.548 406.612 192.541H391.926C391.647 192.548 391.382 192.661 391.185 192.858C390.988 193.055 390.874 193.321 390.867 193.599C390.874 193.878 390.988 194.143 391.185 194.34C391.382 194.537 391.647 194.651 391.926 194.658Z" fill="#AAAAAA"/>
<path d="M367.426 245.399H431.112C431.897 245.394 432.648 245.08 433.203 244.525C433.758 243.97 434.072 243.22 434.077 242.435V223.098C434.072 222.314 433.758 221.563 433.203 221.009C432.648 220.454 431.897 220.14 431.112 220.134H367.426C366.641 220.14 365.89 220.454 365.335 221.009C364.78 221.563 364.466 222.314 364.46 223.098V242.435C364.466 243.22 364.78 243.97 365.335 244.525C365.89 245.08 366.641 245.394 367.426 245.399Z" stroke="#D9D9D9" stroke-width="1.8" stroke-linecap="round" stroke-linejoin="round"/>
<path d="M391.926 226.98H406.612C406.89 226.973 407.156 226.859 407.353 226.662C407.55 226.465 407.664 226.2 407.671 225.921C407.664 225.643 407.55 225.378 407.353 225.181C407.156 224.984 406.89 224.87 406.612 224.863H391.926C391.647 224.87 391.382 224.984 391.185 225.181C390.988 225.378 390.874 225.643 390.867 225.921C390.874 226.2 390.988 226.465 391.185 226.662C391.382 226.859 391.647 226.973 391.926 226.98Z" fill="#AAAAAA"/>
<path d="M40.3812 268.265H104.067C104.852 268.26 105.603 267.945 106.158 267.391C106.713 266.836 107.027 266.085 107.033 265.301V245.964C107.027 245.18 106.713 244.429 106.158 243.874C105.603 243.32 104.852 243.006 104.067 243H40.3812C39.5964 243.006 38.8454 243.32 38.2905 243.874C37.7355 244.429 37.4213 245.18 37.4158 245.964V265.301C37.4213 266.085 37.7355 266.836 38.2905 267.391C38.8454 267.945 39.5964 268.26 40.3812 268.265Z" stroke="#D9D9D9" stroke-width="1.8" stroke-linecap="round" stroke-linejoin="round"/>
<path d="M64.9519 249.775H79.6378C79.9164 249.768 80.1817 249.654 80.3788 249.457C80.5759 249.26 80.6897 248.995 80.6969 248.716C80.6897 248.438 80.5759 248.173 80.3788 247.976C80.1817 247.779 79.9164 247.665 79.6378 247.658H64.9519C64.6733 247.665 64.408 247.779 64.2109 247.976C64.0138 248.173 63.9 248.438 63.8928 248.716C63.8846 248.857 63.9063 248.999 63.9567 249.131C64.007 249.263 64.0847 249.383 64.1848 249.483C64.2848 249.583 64.4048 249.661 64.5371 249.711C64.6693 249.761 64.8107 249.783 64.9519 249.775Z" fill="#AAAAAA"/>
<path d="M122.142 268.265H185.829C186.613 268.26 187.364 267.945 187.919 267.391C188.474 266.836 188.788 266.085 188.794 265.301V245.964C188.788 245.18 188.474 244.429 187.919 243.874C187.364 243.32 186.613 243.006 185.829 243H122.142C121.358 243.006 120.607 243.32 120.052 243.874C119.497 244.429 119.183 245.18 119.177 245.964V265.301C119.183 266.085 119.497 266.836 120.052 267.391C120.607 267.945 121.358 268.26 122.142 268.265Z" stroke="#D9D9D9" stroke-width="1.8" stroke-linecap="round" stroke-linejoin="round"/>
<path d="M146.713 249.775H161.399C161.678 249.768 161.943 249.654 162.14 249.457C162.337 249.26 162.451 248.995 162.458 248.716C162.451 248.438 162.337 248.173 162.14 247.976C161.943 247.779 161.678 247.665 161.399 247.658H146.713C146.434 247.665 146.169 247.779 145.972 247.976C145.775 248.173 145.661 248.438 145.654 248.716C145.646 248.857 145.668 248.999 145.718 249.131C145.768 249.263 145.846 249.383 145.946 249.483C146.046 249.583 146.166 249.661 146.298 249.711C146.431 249.761 146.572 249.783 146.713 249.775Z" fill="#AAAAAA"/>
<path d="M448.622 213.077H512.308C513.093 213.072 513.844 212.758 514.399 212.203C514.954 211.648 515.268 210.897 515.274 210.113V190.706C515.268 189.921 514.954 189.17 514.399 188.616C513.844 188.061 513.093 187.747 512.308 187.741H448.622C447.837 187.747 447.086 188.061 446.531 188.616C445.976 189.17 445.662 189.921 445.657 190.706V210.043C445.652 210.436 445.725 210.827 445.872 211.193C446.018 211.559 446.235 211.892 446.511 212.174C446.786 212.456 447.114 212.68 447.476 212.835C447.839 212.99 448.228 213.073 448.622 213.077Z" stroke="#D9D9D9" stroke-width="1.8" stroke-linecap="round" stroke-linejoin="round"/>
<path d="M473.122 194.658H487.808C488.087 194.651 488.352 194.537 488.549 194.34C488.746 194.143 488.86 193.878 488.867 193.599C488.86 193.321 488.746 193.055 488.549 192.858C488.352 192.661 488.087 192.548 487.808 192.541H473.122C472.843 192.548 472.578 192.661 472.381 192.858C472.184 193.055 472.07 193.321 472.063 193.599C472.07 193.878 472.184 194.143 472.381 194.34C472.578 194.537 472.843 194.651 473.122 194.658Z" fill="#AAAAAA"/>
<path d="M448.622 245.399H512.308C513.093 245.394 513.844 245.08 514.399 244.525C514.954 243.97 515.268 243.22 515.273 242.435V223.098C515.268 222.314 514.954 221.563 514.399 221.009C513.844 220.454 513.093 220.14 512.308 220.134H448.622C447.837 220.14 447.086 220.454 446.531 221.009C445.976 221.563 445.662 222.314 445.656 223.098V242.435C445.662 243.22 445.976 243.97 446.531 244.525C447.086 245.08 447.837 245.394 448.622 245.399Z" stroke="#D9D9D9" stroke-width="1.8" stroke-linecap="round" stroke-linejoin="round"/>
<path d="M473.122 226.98H487.808C488.087 226.973 488.352 226.859 488.549 226.662C488.746 226.465 488.86 226.2 488.867 225.921C488.86 225.643 488.746 225.378 488.549 225.181C488.352 224.984 488.087 224.87 487.808 224.863H473.122C472.843 224.87 472.578 224.984 472.381 225.181C472.184 225.378 472.07 225.643 472.063 225.921C472.07 226.2 472.184 226.465 472.381 226.662C472.578 226.859 472.843 226.973 473.122 226.98Z" fill="#AAAAAA"/>
<path d="M-52.3239 164.1H268.931C269.79 164.09 270.61 163.746 271.217 163.139C271.825 162.532 272.17 161.711 272.179 160.853V104.607C272.17 103.749 271.825 102.928 271.217 102.321C270.61 101.715 269.79 101.37 268.931 101.36H-52.3239C-53.1825 101.37 -54.0032 101.715 -54.6103 102.321C-55.2175 102.928 -55.5626 103.749 -55.5718 104.607V160.853C-55.5727 161.28 -55.4893 161.702 -55.3264 162.097C-55.1635 162.491 -54.9243 162.849 -54.6226 163.151C-54.3208 163.453 -53.9624 163.692 -53.5679 163.854C-53.1735 164.017 -52.7507 164.101 -52.3239 164.1Z" stroke="#D9D9D9" stroke-width="1.8" stroke-linecap="round" stroke-linejoin="round"/>
<path d="M-52.3239 233.967H268.931C269.79 233.958 270.61 233.613 271.217 233.006C271.825 232.399 272.17 231.579 272.179 230.721V174.474C272.17 173.616 271.825 172.795 271.217 172.189C270.61 171.582 269.79 171.237 268.931 171.228H-52.3239C-53.1825 171.237 -54.0032 171.582 -54.6104 172.189C-55.2175 172.795 -55.5626 173.616 -55.5718 174.474V230.721C-55.5626 231.579 -55.2175 232.399 -54.6104 233.006C-54.0032 233.613 -53.1825 233.958 -52.3239 233.967Z" stroke="#D9D9D9" stroke-width="1.8" stroke-linecap="round" stroke-linejoin="round"/>
<path d="M250.595 128.665H243.605V164.163H250.595V128.665Z" stroke="#D9D9D9" stroke-width="1.8" stroke-linecap="round" stroke-linejoin="round"/>
<path d="M243.577 138.27H236.304V164.1H243.577V138.27Z" stroke="#D9D9D9" stroke-width="1.8" stroke-linecap="round" stroke-linejoin="round"/>
<path d="M39.9223 198.349H32.9324V233.847H39.9223V198.349Z" stroke="#D9D9D9" stroke-width="1.8" stroke-linecap="round" stroke-linejoin="round"/>
<path d="M32.904 208.024H25.6316V233.854H32.904V208.024Z" stroke="#D9D9D9" stroke-width="1.8" stroke-linecap="round" stroke-linejoin="round"/>
<path d="M54.1069 198.349H47.1169V233.847H54.1069V198.349Z" stroke="#D9D9D9" stroke-width="1.8" stroke-linecap="round" stroke-linejoin="round"/>
<path d="M60.6579 197.616L53.9922 199.719L64.6834 233.571L71.3491 231.468L60.6579 197.616Z" stroke="#D9D9D9" stroke-width="1.8" stroke-linecap="round" stroke-linejoin="round"/>
<path d="M47.1593 208.024H39.887V233.854H47.1593V208.024Z" stroke="#D9D9D9" stroke-width="1.8" stroke-linecap="round" stroke-linejoin="round"/>
<path d="M187.594 133.259L186.817 122.744C186.802 122.579 186.822 122.413 186.876 122.257C186.93 122.101 187.016 121.958 187.13 121.838C187.244 121.718 187.381 121.623 187.534 121.56C187.687 121.497 187.852 121.468 188.017 121.474H194.089C194.253 121.474 194.414 121.508 194.564 121.573C194.714 121.638 194.849 121.733 194.962 121.852C195.074 121.971 195.161 122.111 195.217 122.264C195.274 122.418 195.298 122.581 195.29 122.744L194.513 133.259C194.513 133.259 200.867 137.353 200.797 140.74C200.726 143.351 199.173 155.843 198.467 161.347C198.377 162.088 198.018 162.771 197.459 163.265C196.899 163.759 196.178 164.031 195.431 164.029H186.676C185.929 164.031 185.207 163.759 184.648 163.265C184.088 162.771 183.73 162.088 183.64 161.347C182.934 155.843 181.38 143.351 181.31 140.74C181.239 137.353 187.594 133.259 187.594 133.259Z" fill="#AAAAAA"/>
<path d="M156.386 133.259L155.609 122.744C155.594 122.579 155.614 122.413 155.668 122.257C155.722 122.101 155.809 121.958 155.923 121.838C156.036 121.718 156.174 121.623 156.327 121.56C156.48 121.497 156.644 121.468 156.81 121.474H162.882C163.045 121.474 163.207 121.508 163.357 121.573C163.507 121.638 163.642 121.733 163.754 121.852C163.866 121.971 163.953 122.111 164.01 122.264C164.066 122.418 164.091 122.581 164.082 122.744L163.305 133.259C163.305 133.259 169.66 137.353 169.589 140.74C169.519 143.351 167.965 155.843 167.259 161.347C167.169 162.088 166.811 162.771 166.251 163.265C165.692 163.759 164.97 164.031 164.223 164.029H155.468C154.721 164.031 154 163.759 153.44 163.265C152.881 162.771 152.522 162.088 152.432 161.347C151.726 155.843 150.173 143.351 150.102 140.74C150.032 137.353 156.386 133.259 156.386 133.259Z" fill="#AAAAAA"/>
<path d="M468.109 300.587H-190.569" stroke="#D9D9D9" stroke-width="1.8" stroke-linecap="round" stroke-linejoin="round"/>
</g>
<path d="M176.297 233.967H117.553C116.636 233.965 115.757 233.6 115.109 232.952C114.46 232.304 114.095 231.425 114.093 230.509V221.264C114.095 220.347 114.46 219.469 115.109 218.821C115.757 218.172 116.636 217.808 117.553 217.806H176.297C177.214 217.808 178.093 218.172 178.741 218.821C179.389 219.469 179.754 220.347 179.756 221.264V230.509C179.754 231.425 179.389 232.304 178.741 232.952C178.093 233.6 177.214 233.965 176.297 233.967Z" stroke="#D9D9D9" stroke-width="1.8" stroke-linecap="round" stroke-linejoin="round"/>
<path d="M168.036 202.915H125.672V217.735H168.036V202.915Z" stroke="#D9D9D9" stroke-width="1.8" stroke-linecap="round" stroke-linejoin="round"/>
<path d="M120.73 224.228C121.315 224.228 121.789 223.754 121.789 223.169C121.789 222.585 121.315 222.111 120.73 222.111C120.145 222.111 119.671 222.585 119.671 223.169C119.671 223.754 120.145 224.228 120.73 224.228Z" fill="#AAAAAA"/>
<path d="M183.64 218.088L213.435 207.008C213.992 206.792 214.471 206.415 214.811 205.924C215.15 205.434 215.335 204.853 215.341 204.256L156.174 200.021L165.282 216.394L180.674 218.441C181.677 218.573 182.696 218.452 183.64 218.088Z" fill="#464646"/>
<path d="M108.656 207.29L103.29 165.441C103.257 165.167 103.284 164.889 103.37 164.626C103.455 164.364 103.597 164.123 103.786 163.922C103.974 163.72 104.204 163.562 104.46 163.458C104.716 163.355 104.992 163.309 105.267 163.323L176.861 168.405C177.375 168.438 177.859 168.657 178.222 169.02C178.586 169.384 178.805 169.867 178.838 170.381L183.075 216.465C183.103 216.747 183.067 217.031 182.969 217.297C182.871 217.563 182.715 217.804 182.511 218C182.307 218.197 182.062 218.346 181.792 218.434C181.523 218.523 181.237 218.549 180.956 218.511L110.492 209.196C110.024 209.113 109.594 208.885 109.264 208.542C108.934 208.2 108.721 207.761 108.656 207.29Z" fill="#22272E"/>
<path d="M215.341 204.326C215.345 204.925 215.164 205.511 214.823 206.003C214.482 206.496 213.997 206.871 213.435 207.079L183.64 218.158C182.9 218.452 182.103 218.573 181.31 218.511C180.562 217.907 179.939 217.164 179.474 216.324L215.341 204.326Z" fill="#22272E"/>
<path d="M142.858 193.415C144.74 192.026 144.951 189.121 143.33 186.926C141.709 184.731 138.868 184.078 136.986 185.467C135.104 186.856 134.892 189.761 136.514 191.956C138.135 194.151 140.975 194.804 142.858 193.415Z" fill="#464646"/>
<path d="M308.611 17.8727H287.006L284.817 19.2842C284.656 19.3888 284.469 19.4472 284.277 19.453C284.085 19.4589 283.894 19.412 283.727 19.3174C283.56 19.2228 283.421 19.0842 283.327 18.9166C283.233 18.749 283.187 18.5588 283.193 18.3667V3.05241C283.193 2.30372 283.491 1.58571 284.02 1.05631C284.55 0.526909 285.268 0.229492 286.017 0.229492H308.682C309.431 0.229492 310.149 0.526909 310.679 1.05631C311.208 1.58571 311.506 2.30372 311.506 3.05241V14.9792C311.492 15.7421 311.182 16.4697 310.642 17.0092C310.102 17.5488 309.374 17.8583 308.611 17.8727Z" fill="#F4C2C9"/>
<path d="M297.032 7.28662H304.587" stroke="#22272E" stroke-width="1.8" stroke-linecap="round" stroke-linejoin="round"/>
<path d="M297.032 11.1682H301.621" stroke="#22272E" stroke-width="1.8" stroke-linecap="round" stroke-linejoin="round"/>
<path d="M293.149 7.28662H289.265V11.1681H293.149V7.28662Z" stroke="#22272E" stroke-width="1.8" stroke-linecap="round" stroke-linejoin="round"/>
<path d="M179.544 132.13L60.2211 150.197C59.5911 150.294 58.9477 150.259 58.3317 150.095C57.7157 149.931 57.1406 149.64 56.6428 149.242C56.1449 148.844 55.7353 148.347 55.4397 147.783C55.1441 147.218 54.9691 146.598 54.9257 145.962L47.7946 38.5504C47.7453 37.8519 47.8467 37.151 48.0919 36.4951C48.337 35.8392 48.7202 35.2435 49.2156 34.7484C49.7109 34.2532 50.3069 33.8702 50.9631 33.6252C51.6194 33.3801 52.3206 33.2788 53.0194 33.328L172.554 40.9499C173.65 41.0187 174.686 41.4756 175.475 42.2387C176.265 43.0018 176.756 44.0211 176.861 45.1137L183.71 126.908C183.786 128.139 183.402 129.355 182.632 130.32C181.863 131.285 180.762 131.93 179.544 132.13Z" fill="#464646"/>
<path d="M182.792 131.989L62.9041 150.126C62.274 150.224 61.6306 150.189 61.0146 150.025C60.3987 149.86 59.8235 149.57 59.3257 149.172C58.8279 148.774 58.4182 148.277 58.1227 147.712C57.8271 147.148 57.6521 146.528 57.6087 145.892L50.4069 37.986C50.3542 37.2775 50.455 36.5658 50.7025 35.8998C50.9499 35.2337 51.3382 34.6288 51.8409 34.1264C52.3436 33.6239 52.9487 33.2358 53.6151 32.9885C54.2815 32.7411 54.9934 32.6403 55.7023 32.6931L175.732 40.3149C176.838 40.3874 177.882 40.8548 178.672 41.632C179.463 42.4093 179.948 43.4446 180.039 44.5493L186.958 126.696C187.096 127.948 186.737 129.204 185.958 130.194C185.179 131.184 184.042 131.828 182.792 131.989Z" fill="#22272E"/>
<path d="M104.632 95.0088L70.8827 96.8437C70.369 96.8669 69.8666 96.6877 69.4837 96.3445C69.1008 96.0014 68.8679 95.5218 68.8351 95.0088L66.8582 66.4973C66.8429 66.2271 66.8825 65.9566 66.9747 65.7022C67.0668 65.4477 67.2095 65.2145 67.3943 65.0167C67.579 64.8189 67.8019 64.6605 68.0495 64.5511C68.2972 64.4417 68.5644 64.3835 68.8351 64.3801L102.585 64.5918C103.087 64.5837 103.574 64.7701 103.942 65.1121C104.31 65.454 104.532 65.925 104.561 66.4267L106.538 92.8916C106.556 93.1564 106.52 93.4221 106.433 93.6728C106.345 93.9235 106.209 94.1543 106.031 94.3516C105.854 94.5489 105.639 94.7086 105.398 94.8215C105.158 94.9344 104.897 94.998 104.632 95.0088Z" fill="#6DAFA7"/>
<path d="M140.923 83.9993L112.681 84.9874C112.167 85.0106 111.665 84.8314 111.282 84.4882C110.899 84.1451 110.666 83.6655 110.633 83.1525L109.433 66.709C109.418 66.4388 109.457 66.1683 109.55 65.9138C109.642 65.6594 109.784 65.4262 109.969 65.2284C110.154 65.0305 110.377 64.8721 110.624 64.7627C110.872 64.6533 111.139 64.5952 111.41 64.5918L139.652 64.8035C140.148 64.818 140.622 65.012 140.986 65.3495C141.349 65.687 141.578 66.145 141.629 66.6384L142.83 81.8822C142.853 82.1483 142.821 82.4164 142.736 82.6697C142.651 82.9231 142.515 83.1563 142.337 83.3549C142.158 83.5534 141.94 83.7131 141.697 83.824C141.454 83.9349 141.19 83.9946 140.923 83.9993Z" fill="#FFE779"/>
<path d="M172.907 82.9409L149.113 83.7878C148.6 83.811 148.097 83.6318 147.714 83.2887C147.331 82.9455 147.099 82.4659 147.066 81.9529L145.865 67.062C145.85 66.7918 145.89 66.5213 145.982 66.2669C146.074 66.0124 146.217 65.7792 146.402 65.5814C146.586 65.3835 146.809 65.2252 147.057 65.1158C147.305 65.0064 147.572 64.9482 147.842 64.9448L171.636 65.086C172.133 65.1004 172.606 65.2945 172.97 65.632C173.334 65.9695 173.562 66.4275 173.613 66.9209L174.743 80.8237C174.769 81.0847 174.742 81.3483 174.663 81.5984C174.583 81.8484 174.454 82.0796 174.282 82.2778C174.11 82.4761 173.899 82.6371 173.663 82.7511C173.427 82.8652 173.17 82.9297 172.907 82.9409Z" fill="#F4C2C9"/>
<path d="M106.75 122.674L73.0007 126.343C72.7349 126.376 72.4652 126.353 72.2084 126.277C71.9516 126.201 71.7133 126.073 71.5081 125.901C71.3029 125.729 71.1352 125.516 71.0155 125.277C70.8957 125.037 70.8264 124.776 70.812 124.508L69.5411 106.089C69.5152 105.568 69.6916 105.056 70.0336 104.662C70.3757 104.267 70.8568 104.02 71.3768 103.972L105.197 101.713C105.457 101.694 105.718 101.726 105.965 101.808C106.212 101.89 106.441 102.02 106.637 102.191C106.834 102.361 106.995 102.569 107.112 102.802C107.228 103.035 107.297 103.289 107.315 103.548L108.586 120.556C108.59 121.072 108.406 121.572 108.068 121.962C107.73 122.352 107.262 122.605 106.75 122.674Z" stroke="#464646" stroke-width="1.8" stroke-linecap="round" stroke-linejoin="round"/>
<path d="M144.1 121.968L115.929 125.285C115.663 125.317 115.393 125.294 115.137 125.218C114.88 125.142 114.641 125.014 114.436 124.842C114.231 124.67 114.063 124.458 113.944 124.218C113.824 123.979 113.755 123.717 113.74 123.45L111.481 93.0328C111.444 92.5089 111.616 91.9917 111.961 91.5948C112.305 91.1978 112.792 90.9536 113.316 90.9157L141.559 89.5748C142.072 89.5515 142.575 89.7308 142.958 90.0739C143.341 90.417 143.573 90.8967 143.606 91.4097L145.866 119.851C145.896 120.362 145.731 120.865 145.403 121.259C145.075 121.652 144.609 121.906 144.1 121.968Z" fill="#F4C2C9"/>
<path d="M138.24 94.8677L117.976 96.0674C117.862 96.0668 117.748 96.0913 117.644 96.1392C117.54 96.1871 117.448 96.2573 117.374 96.3448C117.3 96.4322 117.246 96.5349 117.216 96.6455C117.186 96.7561 117.18 96.872 117.2 96.9849L118.118 109.547C118.123 109.66 118.151 109.77 118.201 109.871C118.25 109.973 118.321 110.063 118.407 110.136C118.493 110.208 118.593 110.263 118.702 110.295C118.81 110.327 118.923 110.337 119.036 110.323L139.299 108.559C139.412 108.554 139.523 108.526 139.624 108.476C139.725 108.426 139.815 108.356 139.888 108.27C139.961 108.184 140.016 108.083 140.048 107.975C140.08 107.867 140.09 107.753 140.076 107.641L139.158 95.644C139.114 95.4306 139 95.2382 138.833 95.0974C138.667 94.9567 138.458 94.8758 138.24 94.8677Z" fill="#6DAFA7"/>
<path d="M175.732 114.981L151.938 117.592C151.672 117.624 151.402 117.602 151.145 117.526C150.889 117.449 150.65 117.321 150.445 117.149C150.24 116.977 150.072 116.765 149.952 116.525C149.833 116.286 149.763 116.024 149.749 115.757L147.843 91.2684C147.806 90.7444 147.978 90.2272 148.322 89.8303C148.667 89.4334 149.154 89.1892 149.678 89.1512L173.472 88.022C173.986 87.9988 174.488 88.178 174.871 88.5212C175.254 88.8643 175.487 89.3439 175.52 89.8569L177.426 112.864C177.456 113.114 177.435 113.368 177.366 113.61C177.296 113.853 177.179 114.079 177.021 114.276C176.864 114.473 176.669 114.637 176.447 114.758C176.226 114.879 175.983 114.955 175.732 114.981Z" fill="#FFE779"/>
<path d="M89.5225 111.029L89.9455 116.251" stroke="#464646" stroke-width="1.8" stroke-linecap="round" stroke-linejoin="round"/>
<path d="M87.2632 113.852L92.2056 113.428" stroke="#464646" stroke-width="1.8" stroke-linecap="round" stroke-linejoin="round"/>
<path d="M123.342 116.816C123.201 115.404 122.142 114.275 120.871 114.416C120.211 114.529 119.621 114.894 119.226 115.434C118.83 115.974 118.661 116.647 118.753 117.31C118.758 117.636 118.829 117.957 118.96 118.255C119.092 118.553 119.281 118.821 119.518 119.045C119.755 119.268 120.034 119.442 120.339 119.557C120.644 119.671 120.969 119.723 121.295 119.709C121.924 119.548 122.475 119.168 122.85 118.638C123.225 118.108 123.4 117.463 123.342 116.816Z" fill="#282828"/>
<path d="M127.438 116.392L140.641 115.052" stroke="#282828" stroke-width="1.8" stroke-linecap="round" stroke-linejoin="round"/>
<path d="M156.809 95.7852C156.799 95.1947 156.569 94.6291 156.165 94.1986C155.76 93.7681 155.21 93.5035 154.621 93.4563C153.491 93.5269 152.714 94.656 152.785 95.9969C152.856 97.3378 153.844 98.3964 154.974 98.3258C156.103 98.2553 156.951 97.1261 156.809 95.7852Z" fill="#6DAFA7"/>
<path d="M160.41 95.5734L171.778 94.8677" stroke="#282828" stroke-width="1.8" stroke-linecap="round" stroke-linejoin="round"/>
<path d="M157.445 103.336C157.304 101.995 156.386 101.007 155.256 101.078C154.127 101.149 153.35 102.348 153.42 103.689C153.491 105.03 154.55 106.089 155.609 105.948C156.196 105.839 156.717 105.505 157.061 105.017C157.404 104.528 157.542 103.925 157.445 103.336Z" fill="#6DAFA7"/>
<path d="M160.975 103.054L172.413 102.137" stroke="#282828" stroke-width="1.8" stroke-linecap="round" stroke-linejoin="round"/>
<path d="M158.08 110.888C157.939 109.547 157.021 108.559 155.892 108.63C154.762 108.7 153.985 109.9 154.056 111.241C154.127 112.582 155.186 113.57 156.245 113.499C156.825 113.378 157.337 113.04 157.678 112.556C158.019 112.071 158.163 111.475 158.08 110.888Z" fill="#6DAFA7"/>
<path d="M161.611 110.535L172.978 109.406" stroke="#282828" stroke-width="1.8" stroke-linecap="round" stroke-linejoin="round"/>
<path d="M78.6493 75.813L74.0599 75.8836C73.8505 75.8725 73.6515 75.789 73.4969 75.6474C73.3424 75.5058 73.2419 75.3148 73.2127 75.1073L72.8596 70.3083C72.8557 70.196 72.8749 70.0842 72.9161 69.9796C72.9573 69.8751 73.0195 69.7802 73.099 69.7007C73.1785 69.6213 73.2735 69.559 73.3781 69.5179C73.4826 69.4767 73.5946 69.4575 73.7069 69.4614H78.2963C78.5057 69.4725 78.7047 69.556 78.8593 69.6976C79.0138 69.8392 79.1143 70.0302 79.1435 70.2377L79.4965 74.9661C79.4699 75.1815 79.372 75.3817 79.2185 75.5351C79.0651 75.6886 78.8647 75.7863 78.6493 75.813Z" fill="#FFE779"/>
<path d="M83.5916 69.4614L99.4778 69.3909" stroke="#282828" stroke-width="1.8" stroke-linecap="round" stroke-linejoin="round"/>
<path d="M83.874 73.5547L99.7603 73.4136" stroke="#282828" stroke-width="1.8" stroke-linecap="round" stroke-linejoin="round"/>
<path d="M154.833 74.6838L151.232 74.7544C151.118 74.738 151.011 74.6895 150.923 74.6145C150.836 74.5395 150.771 74.4412 150.738 74.331L150.384 69.7437C150.383 69.6783 150.394 69.6132 150.418 69.5524C150.442 69.4916 150.479 69.4363 150.525 69.3901C150.571 69.3438 150.626 69.3075 150.687 69.2834C150.748 69.2592 150.813 69.2478 150.879 69.2497H154.48C154.594 69.2661 154.701 69.3147 154.788 69.3897C154.876 69.4646 154.94 69.563 154.974 69.6732L155.327 74.1898C155.319 74.3181 155.264 74.439 155.173 74.5299C155.082 74.6208 154.961 74.6755 154.833 74.6838Z" fill="#282828"/>
<path d="M158.222 69.1792H170.013" stroke="#282828" stroke-width="1.8" stroke-linecap="round" stroke-linejoin="round"/>
<path d="M158.575 72.7784L170.295 72.6372" stroke="#282828" stroke-width="1.8" stroke-linecap="round" stroke-linejoin="round"/>
<path d="M151.09 78.6359L170.719 78.1418" stroke="#282828" stroke-width="1.8" stroke-linecap="round" stroke-linejoin="round"/>
<path d="M79.426 86.7517L74.8366 86.8929C74.6236 86.8936 74.4181 86.8141 74.2611 86.6703C74.1041 86.5264 74.0071 86.3287 73.9893 86.1166L73.6363 81.3176C73.6296 81.2106 73.6446 81.1033 73.6804 81.0021C73.7162 80.901 73.772 80.8082 73.8445 80.7291C73.917 80.65 74.0047 80.5864 74.1024 80.542C74.2001 80.4976 74.3057 80.4734 74.413 80.4707L79.0023 80.3296C79.2117 80.3406 79.4108 80.4241 79.5653 80.5658C79.7199 80.7074 79.8204 80.8983 79.8496 81.1059L80.2026 85.8343C80.2166 86.0578 80.1436 86.2781 79.9988 86.4491C79.8541 86.62 79.6488 86.7285 79.426 86.7517Z" fill="#FFE779"/>
<path d="M84.3682 80.2591L100.254 79.8357" stroke="#282828" stroke-width="1.8" stroke-linecap="round" stroke-linejoin="round"/>
<path d="M84.6506 84.423L100.537 83.929" stroke="#282828" stroke-width="1.8" stroke-linecap="round" stroke-linejoin="round"/>
<path d="M91.0052 52.5945L67.2112 51.8888C66.8329 51.8793 66.4716 51.7296 66.1976 51.4687C65.9236 51.2079 65.7564 50.8545 65.7285 50.4773L65.446 46.737C65.429 46.5255 65.4569 46.3128 65.5279 46.1128C65.599 45.9129 65.7116 45.7303 65.8583 45.577C66.005 45.4236 66.1826 45.3031 66.3792 45.2233C66.5759 45.1434 66.7872 45.1061 66.9994 45.1138L90.7934 46.1018C91.1717 46.1113 91.5329 46.261 91.807 46.5218C92.081 46.7827 92.2482 47.1361 92.2761 47.5133L92.5585 50.9713C92.5701 51.1816 92.5385 51.392 92.4654 51.5895C92.3924 51.787 92.2796 51.9674 92.134 52.1195C91.9884 52.2717 91.813 52.3924 91.6189 52.4741C91.4247 52.5558 91.2159 52.5968 91.0052 52.5945Z" fill="#6DAFA7"/>
<path d="M115.082 69.3203L137.534 69.2498" stroke="#282828" stroke-width="1.8" stroke-linecap="round" stroke-linejoin="round"/>
<path d="M115.364 73.2725L137.817 72.9902" stroke="#282828" stroke-width="1.8" stroke-linecap="round" stroke-linejoin="round"/>
<path d="M115.788 79.4827L127.861 79.2004" stroke="#282828" stroke-width="1.8" stroke-linecap="round" stroke-linejoin="round"/>
<path d="M172.201 52.2416C172.192 51.7483 172.01 51.2739 171.688 50.9002C171.366 50.5266 170.923 50.2771 170.436 50.195C169.589 50.1244 168.883 51.0419 169.024 52.1005C169.012 52.5998 169.185 53.0859 169.512 53.4642C169.838 53.8425 170.293 54.0859 170.789 54.1471C171.637 54.2176 172.272 53.3002 172.201 52.2416Z" fill="#464646"/>
<path d="M165.918 52.0299C165.916 51.5343 165.738 51.0554 165.414 50.68C165.09 50.3046 164.643 50.0575 164.152 49.9833C163.235 49.9127 162.599 50.8302 162.67 51.9593C162.672 52.466 162.86 52.9544 163.198 53.3317C163.536 53.7089 164.002 53.9489 164.505 54.006C165.353 54.006 165.988 53.0885 165.918 52.0299Z" fill="#464646"/>
<path d="M159.422 51.7477C159.408 51.2371 159.218 50.747 158.883 50.361C158.548 49.975 158.09 49.7168 157.586 49.6305C156.668 49.56 155.962 50.4774 156.033 51.6066C156.047 52.1172 156.237 52.6072 156.572 52.9933C156.907 53.3793 157.365 53.6374 157.869 53.7237C158.857 53.7943 159.493 52.8769 159.422 51.7477Z" fill="#464646"/>
<path d="M200.867 61.4867L169.518 60.9221C168.905 60.9232 168.315 60.6898 167.869 60.27C167.423 59.8501 167.154 59.2754 167.118 58.6638L164.294 24.1536C164.276 23.8803 164.317 23.6063 164.413 23.35C164.51 23.0938 164.66 22.861 164.854 22.6673C165.048 22.4736 165.281 22.3235 165.537 22.2269C165.794 22.1303 166.068 22.0894 166.341 22.107L197.831 25.4239C198.405 25.4783 198.941 25.7356 199.342 26.1495C199.744 26.5635 199.984 27.107 200.02 27.6823L202.774 59.3695C202.802 59.6367 202.774 59.907 202.692 60.1627C202.609 60.4184 202.473 60.6538 202.293 60.8536C202.113 61.0534 201.893 61.213 201.648 61.3221C201.402 61.4312 201.136 61.4873 200.867 61.4867Z" fill="#F8AB5D"/>
<path d="M202.562 60.9223L171.213 60.3577C170.6 60.3587 170.01 60.1254 169.563 59.7055C169.117 59.2856 168.848 58.7109 168.812 58.0993L165.988 23.5892C165.97 23.3158 166.011 23.0419 166.108 22.7856C166.205 22.5293 166.355 22.2966 166.549 22.1029C166.742 21.9092 166.975 21.759 167.232 21.6624C167.488 21.5658 167.762 21.5249 168.036 21.5426L199.526 24.8595C200.1 24.9138 200.636 25.1711 201.037 25.5851C201.438 25.9991 201.678 26.5426 201.714 27.1178L204.468 58.8051C204.49 59.071 204.458 59.3386 204.373 59.5915C204.288 59.8444 204.151 60.0772 203.973 60.2756C203.794 60.4739 203.577 60.6336 203.334 60.7449C203.092 60.8561 202.829 60.9164 202.562 60.9223Z" fill="#FFE779"/>
<path d="M179.686 27.9646L196.278 29.5172" stroke="#464646" stroke-width="1.8" stroke-linecap="round" stroke-linejoin="round"/>
<path d="M179.968 31.3521L196.56 32.7635" stroke="#464646" stroke-width="1.8" stroke-linecap="round" stroke-linejoin="round"/>
<path d="M180.604 39.115L197.266 40.2442" stroke="#464646" stroke-width="1.8" stroke-linecap="round" stroke-linejoin="round"/>
<path d="M180.886 42.4321L197.478 43.4202" stroke="#464646" stroke-width="1.8" stroke-linecap="round" stroke-linejoin="round"/>
<path d="M181.592 50.2656L198.184 50.9714" stroke="#464646" stroke-width="1.8" stroke-linecap="round" stroke-linejoin="round"/>
<path d="M181.875 53.5825L198.467 54.1471" stroke="#464646" stroke-width="1.8" stroke-linecap="round" stroke-linejoin="round"/>
<path d="M173.967 29.87L174.814 30.9286L176.014 29.3054" stroke="#6DAFA7" stroke-width="1.8" stroke-linecap="round" stroke-linejoin="round"/>
<path d="M174.885 41.1618L175.732 42.1498L177.003 40.5266" stroke="#6DAFA7" stroke-width="1.8" stroke-linecap="round" stroke-linejoin="round"/>
<path d="M175.802 52.2416L176.72 53.2296L177.92 51.5359" stroke="#6DAFA7" stroke-width="1.8" stroke-linecap="round" stroke-linejoin="round"/>
<path d="M215.765 111.1C215.765 111.1 211.387 120.203 211.034 125.99C210.681 131.777 216.824 154.996 226.85 172.71C226.85 172.71 236.311 169.604 236.311 166.711C236.311 163.817 230.733 129.59 231.086 128.602C231.439 127.614 235.323 120.345 235.323 117.239C235.323 114.134 217.248 107.712 215.765 111.1Z" fill="#F4C2C9"/>
<path d="M235.323 117.239C235.323 114.134 217.318 107.712 215.836 111.1C215.836 111.1 215.271 112.37 214.494 114.205C220.213 118.651 226.356 122.462 233.346 123.732C234.334 121.474 235.323 118.792 235.323 117.239Z" fill="#E26E85"/>
<path d="M234.546 72.4255C234.546 72.4255 227.485 74.825 222.119 86.9636C216.753 99.1021 211.034 109.265 211.034 109.265C211.034 109.265 219.86 118.016 231.157 122.462C242.454 127.049 242.877 73.5547 234.546 72.4255Z" fill="#6DAFA7"/>
<path d="M213.011 105.665C213.011 105.665 225.085 115.545 236.311 119.85" stroke="#282828" stroke-width="1.8" stroke-linecap="round" stroke-linejoin="round"/>
<path d="M258.128 335.662C258.128 335.662 257.493 350.483 257.634 351.894C257.775 353.306 252.692 356.34 246.408 356.129C240.124 355.917 239.559 354.082 239.559 354.082C239.559 354.082 238.147 338.062 238.006 335.803C237.864 333.545 256.857 332.628 258.128 335.662Z" fill="#F4C2C9"/>
<path d="M257.775 344.202C257.916 339.967 258.128 335.662 258.128 335.662C256.857 332.628 237.864 333.545 238.006 335.803C238.076 336.862 238.429 340.814 238.712 344.766C244.29 347.519 251.633 346.813 257.775 344.202Z" fill="#22272E"/>
<path d="M257.634 351.471C257.634 351.471 258.199 355.635 258.411 360.151C258.622 364.668 259.329 372.925 258.552 374.336C257.775 375.748 253.468 376.948 243.372 377.724C233.275 378.5 223.955 377.794 222.331 376.524C220.707 375.254 221.202 373.348 222.755 371.866C224.308 370.384 230.451 363.821 232.993 361.139C236.311 357.611 238.712 354.011 238.712 353.588C238.924 351.894 239.277 351.894 239.277 351.894C239.277 351.894 239.7 352.953 240.265 352.882C240.83 352.812 241.607 349.636 244.996 350.412C248.385 351.188 249.797 353.517 251.068 353.517C252.339 353.517 255.798 353.023 257.634 351.471Z" fill="#22272E"/>
<path d="M284.605 338.627C284.605 338.627 286.512 353.87 286.865 354.788C287.218 355.705 290.748 358.246 296.255 357.964C301.763 357.681 303.881 356.058 304.093 355.705C304.304 355.352 303.951 337.921 303.81 336.792C303.669 335.663 285.876 335.945 284.605 338.627Z" fill="#F4C2C9"/>
<path d="M304.022 344.625C303.951 340.744 303.81 337.145 303.739 336.651C303.528 335.521 285.876 335.874 284.535 338.556C284.535 338.556 284.958 341.944 285.453 345.613C291.61 347.064 298.053 346.721 304.022 344.625Z" fill="#22272E"/>
<path d="M286.582 353.447C286.43 354.545 286.382 355.656 286.441 356.764C286.512 357.681 286.582 358.951 286.582 360.504C286.653 363.75 286.935 374.972 287.712 376.595C288.489 378.218 297.385 379.559 304.093 379.629C310.8 379.7 315.742 377.936 316.519 376.101C317.296 374.266 316.872 371.584 314.542 368.62C312.212 365.656 306.846 361.069 306.211 358.881C305.687 357.014 305.002 355.195 304.163 353.447C303.679 354.126 303.02 354.662 302.257 354.999C301.339 355.282 299.997 351.471 297.103 351.33C294.208 351.188 292.937 352.318 291.101 354.999C289.451 355.082 287.833 354.526 286.582 353.447Z" fill="#22272E"/>
<path d="M224.661 154.572C223.448 160.537 222.599 166.571 222.119 172.639C221.272 183.013 224.238 247.305 224.661 252.316C225.085 257.327 226.709 285.909 228.545 299.811C230.027 311.244 228.968 334.322 232.428 337.568C235.888 340.814 246.478 342.579 253.045 340.814C259.611 339.05 262.647 335.804 263.424 333.122C264.2 330.44 261.094 310.045 261.305 299.67C261.517 289.296 261.305 258.667 260.952 251.398C260.952 251.398 263.847 214.277 267.307 205.808C270.767 197.34 275.78 166.146 266.177 157.113C256.434 148.08 225.509 153.09 224.661 154.572Z" fill="#22272E"/>
<path d="M240.124 158.666C240.124 158.666 240.053 172.639 240.618 183.084C240.72 186.259 241.075 189.421 241.677 192.541C243.442 199.88 247.255 200.445 250.15 202.139C253.045 203.832 263.424 245.4 267.66 256.197C267.66 256.197 270.908 281.039 273.45 295.859C275.992 310.68 275.568 328.605 277.474 334.745C279.381 340.885 290.536 342.085 295.973 341.591C301.409 341.097 308.682 338.979 308.47 332.628C308.258 326.276 307.199 308.21 306.281 292.825C305.363 277.44 303.598 254.504 303.175 249.14C303.175 249.14 301.056 223.734 299.927 210.678C298.797 197.622 299.433 184.284 297.738 161.771C295.902 139.188 240.053 146.104 240.124 158.666Z" fill="#22272E"/>
<path d="M240.618 183.084C240.72 186.259 241.075 189.421 241.677 192.541C243.442 199.88 247.255 200.445 250.15 202.139C253.045 203.832 263.424 245.4 267.66 256.198" stroke="#464646" stroke-width="1.8" stroke-linecap="round" stroke-linejoin="round"/>
<path d="M250.15 202.138C250.15 202.138 241.889 197.904 238.218 199.457" stroke="#464646" stroke-width="1.8" stroke-linecap="round" stroke-linejoin="round"/>
<path d="M237.512 262.619C242.659 262.619 246.831 258.038 246.831 252.386C246.831 246.735 242.659 242.153 237.512 242.153C232.364 242.153 228.192 246.735 228.192 252.386C228.192 258.038 232.364 262.619 237.512 262.619Z" stroke="#464646" stroke-width="1.8" stroke-linecap="round" stroke-linejoin="round"/>
<path d="M286.229 261.984C291.533 261.984 295.832 257.403 295.832 251.751C295.832 246.1 291.533 241.518 286.229 241.518C280.926 241.518 276.627 246.1 276.627 251.751C276.627 257.403 280.926 261.984 286.229 261.984Z" stroke="#464646" stroke-width="1.8" stroke-linecap="round" stroke-linejoin="round"/>
<path d="M241.606 345.825C241.495 345.124 241.495 344.409 241.606 343.708" stroke="#464646" stroke-width="1.8" stroke-linecap="round" stroke-linejoin="round"/>
<path d="M247.467 346.743V343.708" stroke="#464646" stroke-width="1.8" stroke-linecap="round" stroke-linejoin="round"/>
<path d="M254.598 345.331C254.598 345.331 254.669 343.567 254.598 342.791" stroke="#464646" stroke-width="1.8" stroke-linecap="round" stroke-linejoin="round"/>
<path d="M288.488 346.248C288.488 346.248 288.136 344.343 288.136 343.778" stroke="#464646" stroke-width="1.8" stroke-linecap="round" stroke-linejoin="round"/>
<path d="M295.549 346.531C295.622 345.52 295.622 344.506 295.549 343.496" stroke="#464646" stroke-width="1.8" stroke-linecap="round" stroke-linejoin="round"/>
<path d="M301.621 345.401C301.696 344.603 301.696 343.8 301.621 343.002" stroke="#464646" stroke-width="1.8" stroke-linecap="round" stroke-linejoin="round"/>
<path d="M234.97 360.081C234.97 360.081 240.336 355.776 250.856 361.704" stroke="white" stroke-width="1.8" stroke-linecap="round" stroke-linejoin="round"/>
<path d="M230.945 365.515C230.945 365.515 237.582 360.222 247.467 366.644" stroke="white" stroke-width="1.8" stroke-linecap="round" stroke-linejoin="round"/>
<path d="M307.835 363.186C307.835 363.186 301.41 360.363 292.725 364.95" stroke="white" stroke-width="1.8" stroke-linecap="round" stroke-linejoin="round"/>
<path d="M268.719 69.9554C268.719 69.9554 272.249 71.0141 279.734 71.1552C287.218 71.2963 295.761 73.4841 299.079 77.6479C302.398 81.8117 303.457 112.511 302.963 126.414C302.468 140.317 292.513 160.994 292.513 160.994C292.513 160.994 268.719 163.676 249.232 162.759C229.745 161.841 225.085 157.536 223.743 156.196C222.402 154.855 221.625 151.608 222.402 150.197C223.179 148.785 226.991 137.847 228.403 127.331C229.815 116.816 226.85 102.137 228.192 89.2219C229.533 76.307 234.546 72.4961 234.546 72.4961C234.546 72.4961 240.83 70.3789 251.703 70.026C257.37 69.7121 263.05 69.6885 268.719 69.9554Z" fill="#FFE779"/>
<mask id="mask1_198_1313" style="mask-type:luminance" maskUnits="userSpaceOnUse" x="222" y="69" width="82" height="94">
<path d="M268.719 69.9554C268.719 69.9554 272.249 71.0141 279.734 71.1552C287.218 71.2963 295.761 73.4841 299.079 77.6479C302.398 81.8117 303.457 112.511 302.963 126.414C302.468 140.317 292.513 160.994 292.513 160.994C292.513 160.994 268.719 163.676 249.232 162.759C229.745 161.841 225.085 157.536 223.743 156.196C222.402 154.855 221.625 151.608 222.402 150.197C223.179 148.785 226.991 137.847 228.403 127.331C229.815 116.816 226.85 102.137 228.192 89.2219C229.533 76.307 234.546 72.4961 234.546 72.4961C234.546 72.4961 240.83 70.3789 251.703 70.026C257.37 69.7121 263.05 69.6885 268.719 69.9554Z" fill="white"/>
</mask>
<g mask="url(#mask1_198_1313)">
<path d="M240.759 67.1326C240.759 67.1326 231.651 81.106 234.546 110.535C237.441 139.964 224.732 155.137 230.522 168.687" stroke="#F8AB5D" stroke-width="1.8" stroke-linecap="round" stroke-linejoin="round"/>
<path d="M289.971 69.7439C289.971 69.7439 278.886 71.5788 276.133 90.2806C273.379 108.982 280.651 133.965 279.31 148.009C277.968 162.053 274.226 170.31 274.226 170.31" stroke="#F8AB5D" stroke-width="1.8" stroke-linecap="round" stroke-linejoin="round"/>
<path d="M291.172 165.794C291.172 165.794 294.914 130.578 291.172 111.1C287.43 91.6214 295.902 74.6839 305.434 77.0128" stroke="#F8AB5D" stroke-width="1.8" stroke-linecap="round" stroke-linejoin="round"/>
<path d="M258.411 167.276C258.411 167.276 261.517 144.41 260.458 123.944C260.035 116.251 255.586 78.4949 272.037 66.5681" stroke="#F8AB5D" stroke-width="1.8" stroke-linecap="round" stroke-linejoin="round"/>
<path d="M240.759 165.794C240.759 165.794 245.631 137 245.349 120.062C245.066 103.125 243.654 67.2738 252.197 61.4868" stroke="#F8AB5D" stroke-width="1.8" stroke-linecap="round" stroke-linejoin="round"/>
</g>
<path d="M267.66 107.147C270.195 107.147 272.25 105.094 272.25 102.56C272.25 100.027 270.195 97.9729 267.66 97.9729C265.126 97.9729 263.071 100.027 263.071 102.56C263.071 105.094 265.126 107.147 267.66 107.147Z" fill="#F8AB5D"/>
<path d="M252.268 67.2738C250.362 67.3444 248.879 68.4736 247.537 69.8145C246.567 70.7593 245.882 71.9575 245.56 73.2725C242.877 86.2579 246.973 101.925 252.197 101.784C258.764 101.572 267.589 89.6455 274.509 76.0955C277.333 70.5202 271.896 66.6387 268.719 66.6387C266.248 66.5681 256.222 67.0621 252.268 67.2738Z" fill="#6DAFA7"/>
<path d="M282.417 39.8209C282.242 43.8202 281.104 47.7182 279.098 51.1831C275.78 56.829 271.755 59.793 270.414 62.3336C269.072 64.8743 269.425 58.2404 270.414 55.0646C271.402 51.8889 277.262 34.9513 282.417 39.8209Z" fill="#22272E"/>
<path d="M250.785 61.275C250.785 61.275 250.009 68.1205 249.514 70.7317C249.02 73.3429 247.89 80.1885 256.645 80.612C264.483 81.0354 268.719 74.9661 270.272 72.0021C270.756 71.1181 270.977 70.1139 270.908 69.1086C270.696 66.0034 270.272 58.3815 270.484 52.1711C270.767 44.2669 250.785 55.6997 250.785 61.275Z" fill="#F4C2C9"/>
<path d="M266.319 61.769C262.153 65.086 256.01 66.6386 250.221 65.7917C250.009 67.6266 249.726 69.6026 249.515 70.7318C249.444 71.0847 249.373 71.5081 249.303 72.0021C256.434 72.355 264.554 68.8263 266.319 61.769Z" fill="#E26E85"/>
<path d="M242.454 35.8686C242.454 35.8686 240.548 38.621 240.83 40.7382C241.112 42.8554 245.137 49.9832 247.185 49.7715C249.232 49.5598 251.35 40.8087 248.95 37.9152C246.549 35.0218 243.231 34.5278 242.454 35.8686Z" fill="#22272E"/>
<path d="M244.078 39.8915C244.164 43.4342 243.928 46.9775 243.372 50.4774C242.454 56.1232 241.818 64.592 250.22 66.9209C258.623 69.2498 268.507 66.074 271.614 54.5001C274.721 42.9261 276.98 31.211 266.248 27.8235C255.516 24.436 242.807 28.8115 244.078 39.8915Z" fill="#F4C2C9"/>
<path d="M247.679 45.5374C247.878 46.3801 247.828 47.2624 247.538 48.078C247.396 48.4899 247.181 48.8725 246.902 49.2071C246.779 49.3863 246.637 49.5519 246.479 49.7012C246.408 49.7717 246.337 49.9129 246.267 49.9834C246.196 50.1893 246.196 50.4127 246.267 50.6186C246.377 50.9292 246.545 51.2164 246.761 51.4655C247.241 52.0486 247.813 52.5493 248.455 52.9475C247.585 53.0065 246.726 52.7285 246.055 52.1712C245.659 51.8775 245.344 51.4893 245.137 51.042C245.015 50.7889 244.952 50.5115 244.952 50.2304C244.952 49.9494 245.015 49.672 245.137 49.4189C245.243 49.1671 245.413 48.9478 245.631 48.7837C245.772 48.6426 245.914 48.572 245.984 48.4308C246.218 48.166 246.431 47.8828 246.62 47.584C247.056 46.9481 247.412 46.2606 247.679 45.5374Z" fill="#22272E"/>
<path d="M271.19 48.7837C270.361 47.277 269.833 45.6229 269.637 43.9142C269.214 40.6678 265.754 40.8795 264.13 34.8808C262.506 28.8821 258.552 36.2923 252.268 38.9741C245.984 41.6558 241.042 37.3509 238.5 32.5519C235.958 27.753 240.265 23.5186 243.16 21.5425C246.055 19.5665 249.091 22.7423 254.739 21.3308C260.388 19.9194 269.496 18.155 273.873 24.5066C278.251 30.8582 282.77 32.4108 282.487 39.3269C282.205 46.2431 274.085 53.9355 273.591 54.0061C273.097 54.0767 271.19 48.7837 271.19 48.7837Z" fill="#22272E"/>
<path d="M256.293 42.1496C256.081 41.5851 255.869 40.5265 256.646 39.9619C257.422 39.3973 259.187 39.609 260.882 40.6676C262.365 41.585 262.788 43.0671 261.8 42.9259C260.811 42.7848 260.035 42.3614 258.834 42.2908C257.634 42.2202 256.504 42.6436 256.293 42.1496Z" fill="#22272E"/>
<path d="M247.82 41.3733C247.939 41.0379 247.982 40.6802 247.945 40.3261C247.909 39.972 247.793 39.6306 247.608 39.3267C247.184 38.7621 246.055 38.8327 244.996 39.609C244.078 40.3147 243.795 41.6556 244.431 41.585C245.028 41.4116 245.645 41.3167 246.267 41.3028C247.043 41.3733 247.679 41.7968 247.82 41.3733Z" fill="#22272E"/>
<path d="M242.948 54.0765C242.948 54.0765 242.878 54.9234 244.078 55.1351C245.278 55.3468 245.419 53.5119 247.467 53.2296C248.738 53.0885 253.186 53.4413 255.022 55.1351C256.858 56.8288 259.399 58.8049 263.071 57.6757C266.742 56.5465 268.931 51.3947 269.637 43.914C270.273 37.0684 272.814 43.7023 272.814 45.3254C272.814 46.4546 271.755 44.8314 270.484 49.4187C269.92 51.4653 270.484 57.2523 268.296 61.4866C266.601 64.733 261.87 68.0499 255.869 68.4734C249.868 68.8968 244.925 66.4267 243.442 62.4747C241.96 58.6637 242.525 54.3588 242.948 54.0765Z" fill="#22272E"/>
<path d="M245.843 46.6663C246.115 46.694 246.386 46.6129 246.598 46.4409C246.809 46.269 246.944 46.0201 246.973 45.7489L247.043 45.1843C247.071 44.913 246.99 44.6418 246.818 44.4301C246.646 44.2184 246.397 44.0836 246.126 44.0551C245.854 44.0275 245.583 44.1085 245.371 44.2805C245.159 44.4525 245.024 44.7013 244.996 44.9726L244.925 45.5372C244.898 45.8085 244.979 46.0797 245.151 46.2913C245.323 46.503 245.572 46.6378 245.843 46.6663Z" fill="#22272E"/>
<path d="M257.069 47.3721C257.341 47.3998 257.612 47.3187 257.824 47.1467C258.035 46.9748 258.17 46.7259 258.199 46.4547L258.269 45.8901C258.297 45.6188 258.216 45.3476 258.044 45.1359C257.872 44.9243 257.623 44.7894 257.352 44.7609C257.08 44.7333 256.809 44.8143 256.597 44.9863C256.385 45.1583 256.25 45.4071 256.222 45.6784L256.151 46.243C256.126 46.3791 256.13 46.5191 256.164 46.6534C256.198 46.7876 256.261 46.9129 256.348 47.0204C256.436 47.1279 256.545 47.215 256.67 47.2758C256.794 47.3365 256.931 47.3694 257.069 47.3721Z" fill="#22272E"/>
<path d="M270.414 49.4186C270.414 49.4186 272.32 45.1843 275.638 45.6783C278.957 46.1723 277.333 55.135 271.19 55.0645" fill="#F4C2C9"/>
<path d="M275.427 48.8542C275.259 48.6672 275.07 48.5013 274.862 48.3602C274.65 48.2896 274.721 48.4308 274.579 48.5013C274.579 48.5719 274.438 49.1365 274.368 49.6305C274.301 50.1742 274.133 50.7007 273.873 51.1831C273.751 51.4838 273.557 51.7502 273.308 51.9594C273.183 52.0651 273.031 52.1343 272.869 52.1592C272.707 52.1841 272.542 52.1638 272.391 52.1006C272.499 52.044 272.593 51.9639 272.666 51.8662C272.74 51.7685 272.79 51.6557 272.814 51.536C272.885 51.3243 272.885 51.1125 272.955 50.9008C272.996 50.3796 273.067 49.8612 273.167 49.3482L273.379 48.5013L273.591 48.0779C273.662 48.0073 273.662 47.9368 273.803 47.8662C273.944 47.7956 274.015 47.725 274.085 47.6545C274.283 47.5586 274.501 47.5103 274.721 47.5133C274.94 47.5707 275.137 47.6938 275.285 47.8662C275.374 48.013 275.432 48.1761 275.457 48.3458C275.481 48.5156 275.471 48.6885 275.427 48.8542Z" fill="#22272E"/>
<path d="M250.785 58.0286C251.99 58.5284 253.306 58.6989 254.598 58.5226" stroke="#F4C2C9" stroke-width="1.8" stroke-linecap="round" stroke-linejoin="round"/>
<path d="M247.358 44.6254C247.695 41.0945 246.08 38.0522 243.751 37.8301C241.422 37.608 239.261 40.2902 238.924 43.821C238.587 47.3518 240.202 50.3942 242.531 50.6163C244.86 50.8384 247.021 48.1562 247.358 44.6254Z" stroke="#22272E" stroke-width="1.8" stroke-linecap="round" stroke-linejoin="round"/>
<path d="M263.058 45.9975C263.395 42.4667 261.245 39.3733 258.256 39.0883C255.267 38.8033 252.571 41.4345 252.234 44.9653C251.897 48.4961 254.047 51.5895 257.036 51.8745C260.025 52.1596 262.721 49.5283 263.058 45.9975Z" stroke="#22272E" stroke-width="1.8" stroke-linecap="round" stroke-linejoin="round"/>
<path d="M247.185 45.6784C247.185 45.6784 248.385 43.4201 252.198 46.1018" stroke="#22272E" stroke-width="1.8" stroke-linecap="round" stroke-linejoin="round"/>
<path d="M263 46.0312L270.978 47.725" stroke="#22272E" stroke-width="1.8" stroke-linecap="round" stroke-linejoin="round"/>
<path d="M293.572 123.944L297.314 131.495C297.314 131.495 293.36 136.859 289.124 147.021C284.888 157.184 281.781 169.746 278.886 173.345C278.886 173.345 281.71 180.12 288.63 183.084C288.63 183.084 302.115 163.323 308.258 154.714C314.401 146.104 320.261 135.094 319.837 129.59C319.202 121.474 313.059 109.476 312.494 106.23C311.93 102.984 293.713 114.558 293.572 123.944Z" fill="#F4C2C9"/>
<path d="M312.424 106.23C311.93 103.054 293.713 114.558 293.572 123.944L294.137 125.002C300.559 120.252 307.781 116.69 315.46 114.487C313.977 110.817 312.636 107.641 312.424 106.23Z" fill="#E26E85"/>
<path d="M282.417 166.005C283.405 167.699 286.794 172.216 294.702 174.05C294.762 174.062 294.817 174.088 294.864 174.127C294.91 174.166 294.945 174.217 294.967 174.273C294.988 174.33 294.994 174.391 294.985 174.451C294.976 174.511 294.951 174.567 294.914 174.615L291.313 179.485C291.242 179.626 291.031 179.626 290.889 179.626C282.064 176.944 279.734 172.498 279.381 171.651C279.346 171.612 279.327 171.562 279.327 171.51C279.327 171.458 279.346 171.408 279.381 171.369L281.781 166.076C281.922 165.723 282.275 165.723 282.417 166.005Z" fill="#22272E"/>
<path d="M286.437 176.473C287.411 174.883 286.964 172.838 285.439 171.906C283.914 170.974 281.889 171.507 280.916 173.097C279.943 174.687 280.39 176.732 281.914 177.665C283.439 178.597 285.464 178.064 286.437 176.473Z" fill="white"/>
<path d="M295.62 77.0834C296.445 76.9401 297.294 77.0217 298.077 77.3198C298.859 77.6179 299.547 78.1213 300.068 78.7772C301.692 80.8238 304.375 84.7759 307.693 91.5509C313.271 102.913 317.155 110.394 317.155 110.394C317.155 110.394 297.809 120.839 293.572 123.944C293.572 123.944 285.735 110.747 283.193 105.242C280.722 100.02 281.428 79.6946 295.62 77.0834Z" fill="#6DAFA7"/>
<path d="M291.172 119.851C298.62 114.496 306.592 109.909 314.966 106.159" stroke="#282828" stroke-width="1.8" stroke-linecap="round" stroke-linejoin="round"/>
<path d="M276.133 168.687C277.43 172.609 279.644 176.166 282.591 179.063C285.538 181.959 289.133 184.112 293.078 185.342" stroke="#464646" stroke-width="1.8" stroke-linecap="round" stroke-linejoin="round"/>
<path d="M297.314 131.495C298.836 129.795 300.867 128.631 303.104 128.178" stroke="#E26E85" stroke-width="1.8" stroke-linecap="round" stroke-linejoin="round"/>
<path d="M401.952 149.138L339.466 141.446C338.494 141.329 337.608 140.834 337 140.067C336.391 139.301 336.111 138.325 336.218 137.353L342.855 75.3896C342.988 74.2234 343.503 73.134 344.321 72.2914C345.138 71.4488 346.212 70.9004 347.374 70.7318L412.048 61.9808C412.617 61.902 413.196 61.9548 413.741 62.1351C414.286 62.3155 414.782 62.6184 415.191 63.0207C415.601 63.423 415.912 63.9139 416.102 64.4555C416.291 64.9971 416.354 65.575 416.285 66.1446L406.682 145.539C406.524 146.64 405.94 147.634 405.055 148.307C404.17 148.981 403.055 149.279 401.952 149.138Z" fill="#464646"/>
<path d="M399.834 148.927L337.348 141.164C336.376 141.047 335.49 140.551 334.881 139.785C334.273 139.018 333.992 138.043 334.1 137.07L340.737 75.1074C340.87 73.9412 341.385 72.8518 342.202 72.0092C343.02 71.1666 344.093 70.6182 345.256 70.4496L409.93 61.6985C410.499 61.6198 411.078 61.6726 411.623 61.8529C412.168 62.0332 412.664 62.3362 413.073 62.7385C413.483 63.1408 413.794 63.6317 413.984 64.1733C414.173 64.7149 414.236 65.2928 414.166 65.8624L404.564 145.257C404.414 146.366 403.835 147.373 402.95 148.059C402.065 148.745 400.946 149.057 399.834 148.927Z" fill="#22272E"/>
<path d="M397.504 91.3389L348.574 93.809C348.379 93.8242 348.182 93.7957 347.999 93.7255C347.816 93.6554 347.651 93.5453 347.516 93.4034C347.38 93.2615 347.278 93.0912 347.217 92.9051C347.156 92.7189 347.137 92.5214 347.162 92.327L348.362 81.3882C348.396 81.0815 348.533 80.7954 348.751 80.5773C348.969 80.3591 349.256 80.2219 349.562 80.1884L398.916 75.3189C399.122 75.2985 399.33 75.3253 399.524 75.3972C399.718 75.469 399.893 75.5842 400.036 75.7338C400.179 75.8835 400.286 76.0637 400.348 76.2608C400.411 76.458 400.428 76.6668 400.398 76.8715L398.774 90.2804C398.774 90.7744 398.21 91.2684 397.504 91.3389Z" fill="#6DAFA7"/>
<path d="M361.071 83.9994L393.479 81.3882" stroke="#22272E" stroke-width="1.8" stroke-linecap="round" stroke-linejoin="round"/>
<path d="M360.647 88.1634L378.087 86.9636" stroke="#22272E" stroke-width="1.8" stroke-linecap="round" stroke-linejoin="round"/>
<path d="M355.445 87.4375C356.075 86.2712 355.806 84.9057 354.845 84.3876C353.884 83.8695 352.595 84.3951 351.965 85.5615C351.336 86.7278 351.605 88.0933 352.566 88.6114C353.527 89.1294 354.816 88.6039 355.445 87.4375Z" fill="#22272E"/>
<path d="M394.75 113.711L346.385 112.864C346.2 112.855 346.018 112.809 345.85 112.73C345.682 112.65 345.531 112.539 345.407 112.401C345.282 112.263 345.186 112.102 345.124 111.928C345.061 111.753 345.034 111.567 345.044 111.382L346.244 100.514C346.273 100.18 346.427 99.8708 346.677 99.6478C346.926 99.4249 347.251 99.3054 347.585 99.3139L396.303 97.7612C396.501 97.7603 396.697 97.8009 396.878 97.8805C397.06 97.96 397.222 98.0768 397.355 98.2232C397.488 98.3696 397.589 98.5424 397.651 98.7303C397.713 98.9182 397.735 99.117 397.715 99.3139L396.162 112.582C396.089 112.901 395.909 113.187 395.653 113.392C395.396 113.597 395.078 113.709 394.75 113.711Z" fill="#F4C2C9"/>
<path d="M358.882 103.901L390.937 103.478" stroke="#22272E" stroke-width="1.8" stroke-linecap="round" stroke-linejoin="round"/>
<path d="M358.388 107.994H375.687" stroke="#22272E" stroke-width="1.8" stroke-linecap="round" stroke-linejoin="round"/>
<path d="M353.362 106.942C353.938 105.749 353.638 104.411 352.69 103.953C351.742 103.495 350.506 104.091 349.929 105.284C349.352 106.478 349.653 107.816 350.601 108.274C351.549 108.732 352.785 108.136 353.362 106.942Z" fill="#22272E"/>
<path d="M392.067 135.871L344.267 131.777C343.905 131.742 343.571 131.568 343.334 131.291C343.097 131.015 342.976 130.659 342.996 130.295L344.196 119.498C344.229 119.153 344.394 118.835 344.658 118.611C344.922 118.387 345.263 118.274 345.608 118.298L393.761 120.062C393.953 120.071 394.141 120.119 394.314 120.202C394.487 120.286 394.641 120.404 394.767 120.55C394.892 120.695 394.987 120.865 395.045 121.048C395.102 121.231 395.122 121.424 395.103 121.615L393.55 134.742C393.471 135.072 393.281 135.365 393.01 135.571C392.74 135.777 392.407 135.883 392.067 135.871Z" fill="#FFE779"/>
<path d="M356.694 123.661L388.325 125.355" stroke="#22272E" stroke-width="1.8" stroke-linecap="round" stroke-linejoin="round"/>
<path d="M356.199 127.684L373.286 128.884" stroke="#22272E" stroke-width="1.8" stroke-linecap="round" stroke-linejoin="round"/>
<path d="M351.328 125.806C351.85 124.588 351.489 123.264 350.521 122.85C349.553 122.435 348.346 123.087 347.823 124.305C347.301 125.523 347.663 126.847 348.631 127.261C349.598 127.675 350.806 127.024 351.328 125.806Z" fill="#22272E"/>
</svg>
