<svg width="45" height="45" viewBox="0 0 45 45" fill="none" xmlns="http://www.w3.org/2000/svg">
<rect width="45" height="45" fill="white"/>
<rect width="45" height="45" rx="10" fill="url(#paint0_radial_163_666)"/>
<path d="M22.5049 9.90002C16.1646 9.90002 11.2482 14.5462 11.2482 20.8191C11.2482 24.1004 12.5934 26.9371 14.7828 28.8958C14.9657 29.059 15.0783 29.2898 15.0839 29.5374L15.1458 31.5411C15.1503 31.6886 15.191 31.8326 15.2642 31.9607C15.3374 32.0887 15.441 32.1968 15.5658 32.2754C15.6905 32.3541 15.8327 32.4009 15.9798 32.4117C16.1269 32.4225 16.2744 32.3971 16.4094 32.3375L18.6439 31.3526C18.8324 31.2681 19.0463 31.2541 19.2461 31.3075C20.2733 31.589 21.3652 31.7409 22.5049 31.7409C28.8453 31.7409 33.7617 27.0947 33.7617 20.8219C33.7617 14.5491 28.8453 9.90002 22.5049 9.90002Z" fill="white"/>
<path d="M15.7452 24.0132L19.0519 18.7675C19.1763 18.57 19.3403 18.4005 19.5335 18.2695C19.7267 18.1386 19.945 18.0492 20.1746 18.0069C20.4041 17.9646 20.6399 17.9703 20.8671 18.0237C21.0943 18.0771 21.308 18.1771 21.4946 18.3173L24.1259 20.29C24.2434 20.3779 24.3863 20.4252 24.533 20.4247C24.6797 20.4242 24.8223 20.3759 24.9392 20.2872L28.4907 17.5912C28.9635 17.231 29.5826 17.7994 29.2674 18.3032L25.9579 23.546C25.8335 23.7435 25.6695 23.9131 25.4763 24.044C25.2831 24.1749 25.0648 24.2644 24.8353 24.3067C24.6057 24.349 24.3699 24.3432 24.1427 24.2898C23.9155 24.2364 23.7018 24.1365 23.5152 23.9963L20.8839 22.0235C20.7665 21.9356 20.6236 21.8883 20.4768 21.8888C20.3301 21.8893 20.1875 21.9376 20.0706 22.0264L16.5191 24.7223C16.0464 25.0826 15.4272 24.5169 15.7452 24.0132Z" fill="url(#paint1_radial_163_666)"/>
<defs>
<radialGradient id="paint0_radial_163_666" cx="0" cy="0" r="1" gradientUnits="userSpaceOnUse" gradientTransform="translate(7.5375 44.9988) scale(49.5 49.4986)">
<stop stop-color="#0099FF"/>
<stop offset="0.6" stop-color="#A033FF"/>
<stop offset="0.9" stop-color="#FF5280"/>
<stop offset="1" stop-color="#FF7061"/>
</radialGradient>
<radialGradient id="paint1_radial_163_666" cx="0" cy="0" r="1" gradientUnits="userSpaceOnUse" gradientTransform="translate(15.0192 32.4135) scale(24.7648 24.7648)">
<stop stop-color="#0099FF"/>
<stop offset="0.6" stop-color="#A033FF"/>
<stop offset="0.9" stop-color="#FF5280"/>
<stop offset="1" stop-color="#FF7061"/>
</radialGradient>
</defs>
</svg>
